<mxfile host="65bd71144e">
    <diagram id="l64TLAIzjcv8BniKwPuM" name="Page-1">
        <mxGraphModel dx="1656" dy="1214" grid="1" gridSize="10" guides="1" tooltips="1" connect="1" arrows="1" fold="1" page="1" pageScale="1" pageWidth="850" pageHeight="1100" math="0" shadow="0">
            <root>
                <mxCell id="0"/>
                <mxCell id="1" parent="0"/>
                <mxCell id="54" value="" style="group" vertex="1" connectable="0" parent="1">
                    <mxGeometry x="640" y="1200" width="240" height="80" as="geometry"/>
                </mxCell>
                <mxCell id="55" value="J" style="whiteSpace=wrap;html=1;aspect=fixed;" vertex="1" parent="54">
                    <mxGeometry x="80" width="80" height="80" as="geometry"/>
                </mxCell>
                <mxCell id="56" value="^" style="whiteSpace=wrap;html=1;aspect=fixed;" vertex="1" parent="54">
                    <mxGeometry x="160" width="80" height="80" as="geometry"/>
                </mxCell>
                <mxCell id="57" value="^" style="whiteSpace=wrap;html=1;aspect=fixed;" vertex="1" parent="54">
                    <mxGeometry width="80" height="80" as="geometry"/>
                </mxCell>
                <mxCell id="58" value="" style="group" vertex="1" connectable="0" parent="1">
                    <mxGeometry x="850" y="970" width="240" height="80" as="geometry"/>
                </mxCell>
                <mxCell id="59" value="I" style="whiteSpace=wrap;html=1;aspect=fixed;" vertex="1" parent="58">
                    <mxGeometry x="80" width="80" height="80" as="geometry"/>
                </mxCell>
                <mxCell id="60" value="^" style="whiteSpace=wrap;html=1;aspect=fixed;" vertex="1" parent="58">
                    <mxGeometry x="160" width="80" height="80" as="geometry"/>
                </mxCell>
                <mxCell id="61" value="" style="whiteSpace=wrap;html=1;aspect=fixed;" vertex="1" parent="58">
                    <mxGeometry width="80" height="80" as="geometry"/>
                </mxCell>
                <mxCell id="62" value="" style="group" vertex="1" connectable="0" parent="1">
                    <mxGeometry x="220" y="970" width="240" height="80" as="geometry"/>
                </mxCell>
                <mxCell id="63" value="H" style="whiteSpace=wrap;html=1;aspect=fixed;" vertex="1" parent="62">
                    <mxGeometry x="80" width="80" height="80" as="geometry"/>
                </mxCell>
                <mxCell id="64" value="^" style="whiteSpace=wrap;html=1;aspect=fixed;" vertex="1" parent="62">
                    <mxGeometry x="160" width="80" height="80" as="geometry"/>
                </mxCell>
                <mxCell id="65" value="^" style="whiteSpace=wrap;html=1;aspect=fixed;" vertex="1" parent="62">
                    <mxGeometry width="80" height="80" as="geometry"/>
                </mxCell>
                <mxCell id="66" value="" style="group" vertex="1" connectable="0" parent="1">
                    <mxGeometry x="1035" y="750" width="240" height="80" as="geometry"/>
                </mxCell>
                <mxCell id="67" value="G" style="whiteSpace=wrap;html=1;aspect=fixed;" vertex="1" parent="66">
                    <mxGeometry x="80" width="80" height="80" as="geometry"/>
                </mxCell>
                <mxCell id="68" value="^" style="whiteSpace=wrap;html=1;aspect=fixed;" vertex="1" parent="66">
                    <mxGeometry x="160" width="80" height="80" as="geometry"/>
                </mxCell>
                <mxCell id="69" value="" style="whiteSpace=wrap;html=1;aspect=fixed;" vertex="1" parent="66">
                    <mxGeometry width="80" height="80" as="geometry"/>
                </mxCell>
                <mxCell id="70" value="" style="group" vertex="1" connectable="0" parent="1">
                    <mxGeometry x="450" y="750" width="240" height="80" as="geometry"/>
                </mxCell>
                <mxCell id="71" value="F" style="whiteSpace=wrap;html=1;aspect=fixed;" vertex="1" parent="70">
                    <mxGeometry x="80" width="80" height="80" as="geometry"/>
                </mxCell>
                <mxCell id="72" value="^" style="whiteSpace=wrap;html=1;aspect=fixed;" vertex="1" parent="70">
                    <mxGeometry x="160" width="80" height="80" as="geometry"/>
                </mxCell>
                <mxCell id="73" value="" style="whiteSpace=wrap;html=1;aspect=fixed;" vertex="1" parent="70">
                    <mxGeometry width="80" height="80" as="geometry"/>
                </mxCell>
                <mxCell id="74" value="" style="group" vertex="1" connectable="0" parent="1">
                    <mxGeometry x="-130" y="760" width="240" height="80" as="geometry"/>
                </mxCell>
                <mxCell id="75" value="E" style="whiteSpace=wrap;html=1;aspect=fixed;" vertex="1" parent="74">
                    <mxGeometry x="80" width="80" height="80" as="geometry"/>
                </mxCell>
                <mxCell id="76" value="^" style="whiteSpace=wrap;html=1;aspect=fixed;" vertex="1" parent="74">
                    <mxGeometry x="160" width="80" height="80" as="geometry"/>
                </mxCell>
                <mxCell id="77" value="^" style="whiteSpace=wrap;html=1;aspect=fixed;" vertex="1" parent="74">
                    <mxGeometry width="80" height="80" as="geometry"/>
                </mxCell>
                <mxCell id="78" value="" style="group" vertex="1" connectable="0" parent="1">
                    <mxGeometry x="740" y="590" width="240" height="80" as="geometry"/>
                </mxCell>
                <mxCell id="79" value="D" style="whiteSpace=wrap;html=1;aspect=fixed;" vertex="1" parent="78">
                    <mxGeometry x="80" width="80" height="80" as="geometry"/>
                </mxCell>
                <mxCell id="80" value="" style="whiteSpace=wrap;html=1;aspect=fixed;" vertex="1" parent="78">
                    <mxGeometry x="160" width="80" height="80" as="geometry"/>
                </mxCell>
                <mxCell id="81" value="" style="whiteSpace=wrap;html=1;aspect=fixed;" vertex="1" parent="78">
                    <mxGeometry width="80" height="80" as="geometry"/>
                </mxCell>
                <mxCell id="82" value="" style="group" vertex="1" connectable="0" parent="1">
                    <mxGeometry x="110" y="590" width="240" height="80" as="geometry"/>
                </mxCell>
                <mxCell id="83" value="C" style="whiteSpace=wrap;html=1;aspect=fixed;" vertex="1" parent="82">
                    <mxGeometry x="80" width="80" height="80" as="geometry"/>
                </mxCell>
                <mxCell id="84" value="^" style="whiteSpace=wrap;html=1;aspect=fixed;" vertex="1" parent="82">
                    <mxGeometry x="160" width="80" height="80" as="geometry"/>
                </mxCell>
                <mxCell id="85" value="" style="whiteSpace=wrap;html=1;aspect=fixed;" vertex="1" parent="82">
                    <mxGeometry width="80" height="80" as="geometry"/>
                </mxCell>
                <mxCell id="86" value="" style="group" vertex="1" connectable="0" parent="1">
                    <mxGeometry x="440" y="380" width="240" height="80" as="geometry"/>
                </mxCell>
                <mxCell id="87" value="B" style="whiteSpace=wrap;html=1;aspect=fixed;" vertex="1" parent="86">
                    <mxGeometry x="80" width="80" height="80" as="geometry"/>
                </mxCell>
                <mxCell id="88" value="" style="whiteSpace=wrap;html=1;aspect=fixed;" vertex="1" parent="86">
                    <mxGeometry x="160" width="80" height="80" as="geometry"/>
                </mxCell>
                <mxCell id="89" value="" style="whiteSpace=wrap;html=1;aspect=fixed;" vertex="1" parent="86">
                    <mxGeometry width="80" height="80" as="geometry"/>
                </mxCell>
                <mxCell id="90" value="" style="group" vertex="1" connectable="0" parent="1">
                    <mxGeometry x="890" y="200" width="240" height="80" as="geometry"/>
                </mxCell>
                <mxCell id="91" value="A" style="whiteSpace=wrap;html=1;aspect=fixed;" vertex="1" parent="90">
                    <mxGeometry x="80" width="80" height="80" as="geometry"/>
                </mxCell>
                <mxCell id="92" value="^" style="whiteSpace=wrap;html=1;aspect=fixed;" vertex="1" parent="90">
                    <mxGeometry x="160" width="80" height="80" as="geometry"/>
                </mxCell>
                <mxCell id="93" value="" style="whiteSpace=wrap;html=1;aspect=fixed;" vertex="1" parent="90">
                    <mxGeometry width="80" height="80" as="geometry"/>
                </mxCell>
                <mxCell id="94" style="edgeStyle=none;html=1;exitX=0;exitY=0.5;exitDx=0;exitDy=0;entryX=0.5;entryY=0;entryDx=0;entryDy=0;" edge="1" parent="1" source="73" target="63">
                    <mxGeometry relative="1" as="geometry"/>
                </mxCell>
                <mxCell id="95" style="edgeStyle=none;html=1;exitX=0;exitY=0.5;exitDx=0;exitDy=0;entryX=0.5;entryY=0;entryDx=0;entryDy=0;" edge="1" parent="1" source="81" target="71">
                    <mxGeometry relative="1" as="geometry"/>
                </mxCell>
                <mxCell id="97" style="edgeStyle=none;html=1;exitX=1;exitY=0.5;exitDx=0;exitDy=0;entryX=0.5;entryY=0;entryDx=0;entryDy=0;" edge="1" parent="1" source="80" target="67">
                    <mxGeometry relative="1" as="geometry"/>
                </mxCell>
                <mxCell id="98" style="edgeStyle=none;html=1;exitX=0;exitY=0.5;exitDx=0;exitDy=0;entryX=0.5;entryY=0;entryDx=0;entryDy=0;" edge="1" parent="1" source="89" target="83">
                    <mxGeometry relative="1" as="geometry"/>
                </mxCell>
                <mxCell id="99" style="edgeStyle=none;html=1;exitX=1;exitY=0.5;exitDx=0;exitDy=0;entryX=0.5;entryY=0;entryDx=0;entryDy=0;" edge="1" parent="1" source="88" target="79">
                    <mxGeometry relative="1" as="geometry"/>
                </mxCell>
                <mxCell id="100" style="edgeStyle=none;html=1;exitX=0;exitY=0.5;exitDx=0;exitDy=0;entryX=0.5;entryY=0;entryDx=0;entryDy=0;" edge="1" parent="1" source="93" target="87">
                    <mxGeometry relative="1" as="geometry"/>
                </mxCell>
                <mxCell id="101" style="edgeStyle=none;html=1;exitX=0;exitY=0.5;exitDx=0;exitDy=0;entryX=0.5;entryY=0;entryDx=0;entryDy=0;" edge="1" parent="1" source="85" target="75">
                    <mxGeometry relative="1" as="geometry"/>
                </mxCell>
                <mxCell id="102" style="edgeStyle=none;html=1;exitX=0;exitY=0.5;exitDx=0;exitDy=0;entryX=0.5;entryY=0;entryDx=0;entryDy=0;" edge="1" parent="1" source="69" target="59">
                    <mxGeometry relative="1" as="geometry"/>
                </mxCell>
                <mxCell id="103" style="edgeStyle=none;html=1;exitX=0;exitY=0.5;exitDx=0;exitDy=0;entryX=0.5;entryY=0;entryDx=0;entryDy=0;" edge="1" parent="1" source="61" target="55">
                    <mxGeometry relative="1" as="geometry"/>
                </mxCell>
                <mxCell id="106" style="edgeStyle=isometricEdgeStyle;html=1;exitX=0;exitY=0.5;exitDx=0;exitDy=0;fontSize=24;" edge="1" parent="1">
                    <mxGeometry relative="1" as="geometry">
                        <mxPoint x="1008.97" y="200" as="targetPoint"/>
                        <mxPoint x="1048.97" y="110" as="sourcePoint"/>
                    </mxGeometry>
                </mxCell>
                <mxCell id="107" value="T" style="text;html=1;align=center;verticalAlign=middle;resizable=0;points=[];autosize=1;strokeColor=none;fillColor=none;" vertex="1" parent="1">
                    <mxGeometry x="1060" y="90" width="30" height="30" as="geometry"/>
                </mxCell>
            </root>
        </mxGraphModel>
    </diagram>
</mxfile>